<svg width="26" height="26" viewBox="0 0 26 26" fill="none" xmlns="http://www.w3.org/2000/svg">
<path d="M13 25C19.6274 25 25 19.6274 25 13C25 6.37258 19.6274 1 13 1C6.37258 1 1 6.37258 1 13C1 19.6274 6.37258 25 13 25Z" stroke="white" stroke-width="2"/>
<path fill-rule="evenodd" clip-rule="evenodd" d="M6.45453 13.1661C6.45453 16.1308 8.32983 18.6465 10.9308 19.5339C11.2583 19.5957 11.3776 19.3885 11.3776 19.2105C11.3776 19.0511 11.372 18.6292 11.3688 18.0693C9.54815 18.4747 9.16401 17.1695 9.16401 17.1695C8.86626 16.3941 8.43711 16.1877 8.43711 16.1877C7.84282 15.7711 8.48212 15.7798 8.48212 15.7798C9.13909 15.8272 9.48466 16.4715 9.48466 16.4715C10.0689 17.497 11.0168 17.2008 11.3897 17.029C11.4492 16.5951 11.6183 16.2997 11.8052 16.1316C10.3518 15.9623 8.82366 15.3867 8.82366 12.815C8.82366 12.0821 9.07882 11.483 9.49752 11.0138C9.43041 10.844 9.20579 10.1617 9.56181 9.23804C9.56181 9.23804 10.1115 9.05717 11.3616 9.92567C11.8839 9.77693 12.4437 9.70236 13.0002 9.69989C13.5563 9.70236 14.116 9.77693 14.6392 9.92567C15.8885 9.05717 16.4374 9.23804 16.4374 9.23804C16.7942 10.1617 16.5696 10.844 16.5025 11.0138C16.922 11.483 17.1751 12.0821 17.1751 12.815C17.1751 15.3929 15.645 15.9602 14.1868 16.1267C14.4218 16.3339 14.6308 16.7435 14.6308 17.3693C14.6308 18.2666 14.6231 18.9905 14.6231 19.2105C14.6231 19.3902 14.7409 19.5986 15.0732 19.5331C17.6718 18.644 19.5454 16.1304 19.5454 13.1661C19.5454 9.45928 16.6146 6.45456 12.9994 6.45456C9.38541 6.45456 6.45453 9.45928 6.45453 13.1661Z" fill="white"/>
</svg>
