<svg width="26" height="26" viewBox="0 0 26 26" fill="none" xmlns="http://www.w3.org/2000/svg">
<path d="M13 25C19.6274 25 25 19.6274 25 13C25 6.37258 19.6274 1 13 1C6.37258 1 1 6.37258 1 13C1 19.6274 6.37258 25 13 25Z" stroke="white" stroke-width="2"/>
<path fill-rule="evenodd" clip-rule="evenodd" d="M7.82064 11.0435H9.94691V18.4539H7.82064V11.0435ZM8.82957 10.1166H8.81418C8.04449 10.1166 7.54547 9.55013 7.54547 8.83277C7.54547 8.10075 8.05924 7.54544 8.84432 7.54544C9.62877 7.54544 10.1111 8.09935 10.1265 8.83067C10.1265 9.54803 9.62877 10.1166 8.82957 10.1166ZM18.4546 18.4546H16.0435V14.6191C16.0435 13.6154 15.6664 12.9308 14.837 12.9308C14.2027 12.9308 13.8499 13.3926 13.6857 13.8389C13.6241 13.9982 13.6337 14.221 13.6337 14.4445V18.4546H11.2451C11.2451 18.4546 11.2759 11.661 11.2451 11.0435H13.6337V12.2065C13.7748 11.698 14.5381 10.9723 15.7562 10.9723C17.2673 10.9723 18.4546 12.0389 18.4546 14.3334V18.4546Z" fill="white"/>
</svg>
