<svg width="26" height="26" viewBox="0 0 26 26" fill="none" xmlns="http://www.w3.org/2000/svg">
<path d="M13 25C19.6274 25 25 19.6274 25 13C25 6.37258 19.6274 1 13 1C6.37258 1 1 6.37258 1 13C1 19.6274 6.37258 25 13 25Z" stroke="white" stroke-width="2"/>
<path fill-rule="evenodd" clip-rule="evenodd" d="M14.8778 15.4692L9.41548 14.9548L9.30681 16.142L14.7769 16.6563L14.8778 15.4692ZM14.7459 16.9967L9.26025 17.0046V18.1994L14.7459 18.1917V16.9967ZM15.933 12.541L11.2078 9.69194L10.6104 10.7207L15.3355 13.5698L15.933 12.541ZM15.2424 13.9022L9.94307 12.4539L9.64042 13.6093L14.9399 15.0577L15.2424 13.9022ZM15.6845 19.1492H8.48428V14.2584H7.54547V20.0829H7.55328L7.82489 20.0909H16.608V20.0829L16.6158 19.8059V14.2584H15.6845V19.1492ZM17.5158 5.90909L16.3596 6.11482L17.2986 11.6309L18.4546 11.4251L17.5158 5.90909ZM13.0311 7.75302L16.127 12.3748L17.0892 11.7022L14.001 7.07248L13.0311 7.75302Z" fill="white"/>
</svg>
